<svg
  width="122"
  height="140"
  viewBox="0 0 122 140"
  fill="none"
  xmlns="http://www.w3.org/2000/svg"
>
  <path d="M122 105V35L61 70V140L122 105Z" fill="#46A6DD" />
  <path d="M122 35L61 0L0 35L61 70L122 35Z" fill="#A4E6FB" />
  <path d="M0 105L61 140V70L0 35V105Z" fill="#91D0F4" />
  <path
    d="M77.3115 118.747L71 122.502L85.2416 67.7934L91.4706 64.0875L77.3115 118.747Z"
    fill="#EFF1F2"
  />
  <path
    d="M111.573 78.2071L93.7636 97.4479L92.2024 92.5973L105.203 79.0352L92.2985 80.8857L93.9549 74.1207L111.622 72.2553L111.573 78.2071Z"
    fill="#EFF1F2"
  />
  <path
    d="M8.14765 68.7034L26.0937 70.3357L27.6672 77.0795L14.5665 75.3993L27.5712 88.7911L25.9023 93.6629L8.09882 74.6552L8.14765 68.7034Z"
    fill="#EFF1F2"
  />
  <path
    d="M40.7823 99.2157C41.6968 99.7437 42.4457 100.096 43.029 100.272C43.6402 100.432 44.1272 100.472 44.4898 100.392C44.8527 100.28 45.1051 100.056 45.2471 99.7197C45.3891 99.3838 45.4622 98.9598 45.4664 98.4478C45.4753 97.3598 45.0392 96.2079 44.1582 94.9919C43.2774 93.7439 41.7597 92.0799 39.6049 90C38.6658 89.072 37.7271 88.096 36.7888 87.072C35.8508 86.016 35.0107 84.904 34.2685 83.7361C33.5265 82.5361 32.9243 81.2721 32.4618 79.9442C31.9997 78.5842 31.7749 77.1362 31.7875 75.6003C31.8001 74.0643 32.0608 72.8324 32.5696 71.9044C33.0786 70.9445 33.794 70.2965 34.7156 69.9605C35.6372 69.6246 36.7511 69.6086 38.0573 69.9126C39.3637 70.1846 40.8345 70.7926 42.4695 71.7366C44.4094 72.8566 46.0841 74.0646 47.4935 75.3606C48.9029 76.6566 50.0625 77.8566 50.9723 78.9606L49.0533 83.7844C48.2535 82.8404 47.3563 81.9044 46.3615 80.9764C45.3947 80.0324 44.2185 79.1604 42.8328 78.3604C41.2809 77.4644 40.1564 77.0724 39.4594 77.1844C38.7904 77.2804 38.4517 77.8403 38.4433 78.8643C38.4383 79.4723 38.5588 80.0563 38.8048 80.6163C39.0508 81.1762 39.394 81.7602 39.8346 82.3682C40.3031 82.9602 40.8271 83.5682 41.4067 84.1922C42.0143 84.8002 42.6772 85.4562 43.3953 86.1602C44.8866 87.6641 46.1838 89.0561 47.2871 90.3361C48.3906 91.5841 49.2992 92.8321 50.0129 94.08C50.7544 95.344 51.3006 96.64 51.6517 97.9679C52.0028 99.2959 52.1718 100.76 52.1586 102.36C52.1332 105.464 51.1711 107.336 49.2725 107.976C47.3741 108.583 44.5266 107.791 40.7299 105.599C39.4551 104.863 38.3058 104.103 37.282 103.319C36.258 102.567 35.3451 101.831 34.5436 101.111C33.7697 100.408 33.093 99.7435 32.5134 99.1195C31.9615 98.5115 31.4926 97.9675 31.1067 97.4875L32.9846 92.5917C33.8392 93.6317 34.8882 94.7357 36.1316 95.9037C37.403 97.0557 38.9532 98.1597 40.7823 99.2157Z"
    fill="#EFF1F2"
  />
</svg>
